<svg width="61" height="61" viewBox="0 0 61 61" fill="none" xmlns="http://www.w3.org/2000/svg">
<path d="M19.2767 33.8203C20.2713 33.8203 21.2251 33.4252 21.9284 32.722C22.6316 32.0187 23.0267 31.0649 23.0267 30.0703C23.0267 29.0758 22.6316 28.1219 21.9284 27.4187C21.2251 26.7154 20.2713 26.3203 19.2767 26.3203C18.2822 26.3203 17.3283 26.7154 16.6251 27.4187C15.9218 28.1219 15.5267 29.0758 15.5267 30.0703C15.5267 31.0649 15.9218 32.0187 16.6251 32.722C17.3283 33.4252 18.2822 33.8203 19.2767 33.8203ZM30.5267 33.8203C31.5213 33.8203 32.4751 33.4252 33.1784 32.722C33.8816 32.0187 34.2767 31.0649 34.2767 30.0703C34.2767 29.0758 33.8816 28.1219 33.1784 27.4187C32.4751 26.7154 31.5213 26.3203 30.5267 26.3203C29.5322 26.3203 28.5783 26.7154 27.8751 27.4187C27.1718 28.1219 26.7767 29.0758 26.7767 30.0703C26.7767 31.0649 27.1718 32.0187 27.8751 32.722C28.5783 33.4252 29.5322 33.8203 30.5267 33.8203ZM45.5267 30.0703C45.5267 31.0649 45.1316 32.0187 44.4284 32.722C43.7251 33.4252 42.7713 33.8203 41.7767 33.8203C40.7822 33.8203 39.8283 33.4252 39.1251 32.722C38.4218 32.0187 38.0267 31.0649 38.0267 30.0703C38.0267 29.0758 38.4218 28.1219 39.1251 27.4187C39.8283 26.7154 40.7822 26.3203 41.7767 26.3203C42.7713 26.3203 43.7251 26.7154 44.4284 27.4187C45.1316 28.1219 45.5267 29.0758 45.5267 30.0703ZM56.7767 30.0703C56.7767 44.5678 45.0242 56.3203 30.5267 56.3203C16.0292 56.3203 4.27673 44.5678 4.27673 30.0703C4.27673 15.5728 16.0292 3.82031 30.5267 3.82031C45.0242 3.82031 56.7767 15.5728 56.7767 30.0703ZM53.0267 30.0703C53.0267 17.6447 42.9524 7.57031 30.5267 7.57031C18.1011 7.57031 8.02673 17.6447 8.02673 30.0703C8.02673 42.4959 18.1011 52.5703 30.5267 52.5703C42.9524 52.5703 53.0267 42.4959 53.0267 30.0703Z" fill="white"/>
</svg>
