<svg width="40" height="42" viewBox="0 0 40 42" fill="none" xmlns="http://www.w3.org/2000/svg">
<path d="M11.7385 9.50041C11.1595 9.50041 10.6042 9.74258 10.1948 10.1736C9.78538 10.6047 9.55537 11.1893 9.55537 11.799C9.55537 12.4086 9.78538 12.9932 10.1948 13.4243C10.6042 13.8553 11.1595 14.0975 11.7385 14.0975H29.0428C29.6218 14.0975 30.1771 13.8553 30.5865 13.4243C30.996 12.9932 31.226 12.4086 31.226 11.799C31.226 11.1893 30.996 10.6047 30.5865 10.1736C30.1771 9.74258 29.6218 9.50041 29.0428 9.50041H11.7385ZM9.5619 21C9.5619 19.735 10.5349 18.7015 11.7385 18.7015H29.0428C29.6218 18.7015 30.1771 18.9436 30.5865 19.3747C30.996 19.8057 31.226 20.3904 31.226 21C31.226 21.6096 30.996 22.1943 30.5865 22.6253C30.1771 23.0564 29.6218 23.2985 29.0428 23.2985H11.7385C10.5349 23.2985 9.5619 22.2673 9.5619 21ZM11.7581 27.9025C11.1788 27.9025 10.6233 28.1448 10.2136 28.5761C9.804 29.0073 9.57387 29.5923 9.57387 30.2022C9.57387 30.8121 9.804 31.397 10.2136 31.8283C10.6233 32.2596 11.1788 32.5019 11.7581 32.5019H29.0624C29.6417 32.5019 30.1973 32.2596 30.6069 31.8283C31.0165 31.397 31.2466 30.8121 31.2466 30.2022C31.2466 29.5923 31.0165 29.0073 30.6069 28.5761C30.1973 28.1448 29.6417 27.9025 29.0624 27.9025H11.7581Z" fill="black"/>
<path fill-rule="evenodd" clip-rule="evenodd" d="M0.820526 7.25C0.820526 5.42664 1.5085 3.67795 2.73309 2.38864C3.95769 1.09933 5.6186 0.375 7.35044 0.375H33.4701C35.2019 0.375 36.8628 1.09933 38.0874 2.38864C39.312 3.67795 40 5.42664 40 7.25V34.75C40 36.5734 39.312 38.322 38.0874 39.6114C36.8628 40.9007 35.2019 41.625 33.4701 41.625H7.35044C5.6186 41.625 3.95769 40.9007 2.73309 39.6114C1.5085 38.322 0.820526 36.5734 0.820526 34.75V7.25ZM7.35044 4.95833H33.4701C34.0474 4.95833 34.601 5.19978 35.0092 5.62955C35.4174 6.05932 35.6467 6.64221 35.6467 7.25V34.75C35.6467 35.3578 35.4174 35.9407 35.0092 36.3705C34.601 36.8002 34.0474 37.0417 33.4701 37.0417H7.35044C6.77316 37.0417 6.21952 36.8002 5.81132 36.3705C5.40312 35.9407 5.1738 35.3578 5.1738 34.75V7.25C5.1738 6.64221 5.40312 6.05932 5.81132 5.62955C6.21952 5.19978 6.77316 4.95833 7.35044 4.95833Z" fill="black"/>
</svg>
