<svg width="31" height="31" viewBox="0 0 31 31" fill="none" xmlns="http://www.w3.org/2000/svg">
<path d="M21.3125 12.5937C21.3125 12.3368 21.4146 12.0904 21.5962 11.9087C21.7779 11.7271 22.0243 11.625 22.2812 11.625H24.2187C24.4757 11.625 24.7221 11.7271 24.9038 11.9087C25.0854 12.0904 25.1875 12.3368 25.1875 12.5937V14.5312C25.1875 14.7882 25.0854 15.0346 24.9038 15.2163C24.7221 15.3979 24.4757 15.5 24.2187 15.5H22.2812C22.0243 15.5 21.7779 15.3979 21.5962 15.2163C21.4146 15.0346 21.3125 14.7882 21.3125 14.5312V12.5937Z" fill="black"/>
<path d="M6.78125 0C7.03818 0 7.28458 0.102064 7.46626 0.28374C7.64794 0.465416 7.75 0.711822 7.75 0.96875V1.9375H23.25V0.96875C23.25 0.711822 23.3521 0.465416 23.5337 0.28374C23.7154 0.102064 23.9618 0 24.2187 0C24.4757 0 24.7221 0.102064 24.9038 0.28374C25.0854 0.465416 25.1875 0.711822 25.1875 0.96875V1.9375H27.125C28.1527 1.9375 29.1383 2.34576 29.865 3.07246C30.5917 3.79916 31 4.78479 31 5.8125V27.125C31 28.1527 30.5917 29.1383 29.865 29.865C29.1383 30.5917 28.1527 31 27.125 31H3.875C2.84729 31 1.86166 30.5917 1.13496 29.865C0.408258 29.1383 0 28.1527 0 27.125V5.8125C0 4.78479 0.408258 3.79916 1.13496 3.07246C1.86166 2.34576 2.84729 1.9375 3.875 1.9375H5.8125V0.96875C5.8125 0.711822 5.91456 0.465416 6.09624 0.28374C6.27792 0.102064 6.52432 0 6.78125 0ZM1.9375 7.75V27.125C1.9375 27.6389 2.14163 28.1317 2.50498 28.495C2.86833 28.8584 3.36114 29.0625 3.875 29.0625H27.125C27.6389 29.0625 28.1317 28.8584 28.495 28.495C28.8584 28.1317 29.0625 27.6389 29.0625 27.125V7.75H1.9375Z" fill="black"/>
</svg>
