<svg width="31" height="31" viewBox="0 0 31 31" fill="none" xmlns="http://www.w3.org/2000/svg">
<path d="M28.0937 2.58333C28.3507 2.58333 28.5971 2.71942 28.7788 2.96165C28.9604 3.20389 29.0625 3.53243 29.0625 3.875V27.125C29.0625 27.4676 28.9604 27.7961 28.7788 28.0383C28.5971 28.2806 28.3507 28.4167 28.0937 28.4167H2.90625C2.64932 28.4167 2.40292 28.2806 2.22124 28.0383C2.03956 27.7961 1.9375 27.4676 1.9375 27.125V3.875C1.9375 3.53243 2.03956 3.20389 2.22124 2.96165C2.40292 2.71942 2.64932 2.58333 2.90625 2.58333H28.0937ZM2.90625 0C2.13546 0 1.39625 0.408258 0.851221 1.13496C0.306193 1.86166 0 2.84729 0 3.875V27.125C0 28.1527 0.306193 29.1383 0.851221 29.865C1.39625 30.5917 2.13546 31 2.90625 31H28.0937C28.8645 31 29.6038 30.5917 30.1488 29.865C30.6938 29.1383 31 28.1527 31 27.125V3.875C31 2.84729 30.6938 1.86166 30.1488 1.13496C29.6038 0.408258 28.8645 0 28.0937 0H2.90625Z" fill="black"/>
<path d="M9.6875 15.5C9.6875 15.1574 9.78956 14.8289 9.97124 14.5867C10.1529 14.3444 10.3993 14.2083 10.6562 14.2083H24.2187C24.4757 14.2083 24.7221 14.3444 24.9038 14.5867C25.0854 14.8289 25.1875 15.1574 25.1875 15.5C25.1875 15.8426 25.0854 16.1711 24.9038 16.4133C24.7221 16.6556 24.4757 16.7917 24.2187 16.7917H10.6562C10.3993 16.7917 10.1529 16.6556 9.97124 16.4133C9.78956 16.1711 9.6875 15.8426 9.6875 15.5ZM9.6875 9.04167C9.6875 8.6991 9.78956 8.37056 9.97124 8.12832C10.1529 7.88609 10.3993 7.75 10.6562 7.75H24.2187C24.4757 7.75 24.7221 7.88609 24.9038 8.12832C25.0854 8.37056 25.1875 8.6991 25.1875 9.04167C25.1875 9.38424 25.0854 9.71278 24.9038 9.95501C24.7221 10.1972 24.4757 10.3333 24.2187 10.3333H10.6562C10.3993 10.3333 10.1529 10.1972 9.97124 9.95501C9.78956 9.71278 9.6875 9.38424 9.6875 9.04167ZM9.6875 21.9583C9.6875 21.6158 9.78956 21.2872 9.97124 21.045C10.1529 20.8028 10.3993 20.6667 10.6562 20.6667H24.2187C24.4757 20.6667 24.7221 20.8028 24.9038 21.045C25.0854 21.2872 25.1875 21.6158 25.1875 21.9583C25.1875 22.3009 25.0854 22.6294 24.9038 22.8717C24.7221 23.1139 24.4757 23.25 24.2187 23.25H10.6562C10.3993 23.25 10.1529 23.1139 9.97124 22.8717C9.78956 22.6294 9.6875 22.3009 9.6875 21.9583ZM7.75 9.04167C7.75 9.38424 7.64794 9.71278 7.46626 9.95501C7.28458 10.1972 7.03818 10.3333 6.78125 10.3333C6.52432 10.3333 6.27792 10.1972 6.09624 9.95501C5.91456 9.71278 5.8125 9.38424 5.8125 9.04167C5.8125 8.6991 5.91456 8.37056 6.09624 8.12832C6.27792 7.88609 6.52432 7.75 6.78125 7.75C7.03818 7.75 7.28458 7.88609 7.46626 8.12832C7.64794 8.37056 7.75 8.6991 7.75 9.04167ZM7.75 15.5C7.75 15.8426 7.64794 16.1711 7.46626 16.4133C7.28458 16.6556 7.03818 16.7917 6.78125 16.7917C6.52432 16.7917 6.27792 16.6556 6.09624 16.4133C5.91456 16.1711 5.8125 15.8426 5.8125 15.5C5.8125 15.1574 5.91456 14.8289 6.09624 14.5867C6.27792 14.3444 6.52432 14.2083 6.78125 14.2083C7.03818 14.2083 7.28458 14.3444 7.46626 14.5867C7.64794 14.8289 7.75 15.1574 7.75 15.5ZM7.75 21.9583C7.75 22.3009 7.64794 22.6294 7.46626 22.8717C7.28458 23.1139 7.03818 23.25 6.78125 23.25C6.52432 23.25 6.27792 23.1139 6.09624 22.8717C5.91456 22.6294 5.8125 22.3009 5.8125 21.9583C5.8125 21.6158 5.91456 21.2872 6.09624 21.045C6.27792 20.8028 6.52432 20.6667 6.78125 20.6667C7.03818 20.6667 7.28458 20.8028 7.46626 21.045C7.64794 21.2872 7.75 21.6158 7.75 21.9583Z" fill="black"/>
</svg>
