<svg width="31" height="31" viewBox="0 0 31 31" fill="none" xmlns="http://www.w3.org/2000/svg">
<path d="M30.3584 15.246L16.2734 0.339496C16.172 0.231876 16.0516 0.146496 15.919 0.0882407C15.7864 0.0299857 15.6442 0 15.5006 0C15.3571 0 15.2149 0.0299857 15.0823 0.0882407C14.9497 0.146496 14.8292 0.231876 14.7278 0.339496L0.642868 15.246C0.232527 15.6806 0 16.2709 0 16.8866C0 18.165 0.981399 19.2044 2.18849 19.2044H3.67255V29.8411C3.67255 30.4821 4.16154 31 4.7668 31H13.3122V22.8876H17.142V31H26.2345C26.8397 31 27.3287 30.4821 27.3287 29.8411V19.2044H28.8128C29.3941 19.2044 29.9515 18.9618 30.3618 18.5236C31.2133 17.6182 31.2133 16.1514 30.3584 15.246Z" fill="black"/>
</svg>
