<svg width="38" height="42" viewBox="0 0 38 42" fill="none" xmlns="http://www.w3.org/2000/svg">
<path d="M10.7 9.50041C10.1458 9.50041 9.61431 9.74258 9.22244 10.1736C8.83056 10.6047 8.61041 11.1893 8.61041 11.799C8.61041 12.4086 8.83056 12.9932 9.22244 13.4243C9.61431 13.8553 10.1458 14.0975 10.7 14.0975H27.2625C27.8167 14.0975 28.3482 13.8553 28.7401 13.4243C29.1319 12.9932 29.3521 12.4086 29.3521 11.799C29.3521 11.1893 29.1319 10.6047 28.7401 10.1736C28.3482 9.74258 27.8167 9.50041 27.2625 9.50041H10.7V9.50041ZM8.61666 21C8.61666 19.735 9.54791 18.7015 10.7 18.7015H27.2625C27.8167 18.7015 28.3482 18.9436 28.7401 19.3747C29.1319 19.8057 29.3521 20.3904 29.3521 21C29.3521 21.6096 29.1319 22.1943 28.7401 22.6253C28.3482 23.0564 27.8167 23.2985 27.2625 23.2985H10.7C9.54791 23.2985 8.61666 22.2673 8.61666 21V21ZM10.7187 27.9025C10.1643 27.9025 9.63252 28.1448 9.24045 28.5761C8.84838 29.0073 8.62812 29.5923 8.62812 30.2022C8.62812 30.8121 8.84838 31.397 9.24045 31.8283C9.63252 32.2596 10.1643 32.5019 10.7187 32.5019H27.2812C27.8357 32.5019 28.3675 32.2596 28.7595 31.8283C29.1516 31.397 29.3719 30.8121 29.3719 30.2022C29.3719 29.5923 29.1516 29.0073 28.7595 28.5761C28.3675 28.1448 27.8357 27.9025 27.2812 27.9025H10.7187V27.9025Z" fill="black"/>
<path fill-rule="evenodd" clip-rule="evenodd" d="M0.25 7.25C0.25 5.42664 0.90848 3.67795 2.08058 2.38864C3.25269 1.09933 4.8424 0.375 6.5 0.375H31.5C33.1576 0.375 34.7473 1.09933 35.9194 2.38864C37.0915 3.67795 37.75 5.42664 37.75 7.25V34.75C37.75 36.5734 37.0915 38.322 35.9194 39.6114C34.7473 40.9007 33.1576 41.625 31.5 41.625H6.5C4.8424 41.625 3.25269 40.9007 2.08058 39.6114C0.90848 38.322 0.25 36.5734 0.25 34.75V7.25ZM6.5 4.95833H31.5C32.0525 4.95833 32.5824 5.19978 32.9731 5.62955C33.3638 6.05932 33.5833 6.64221 33.5833 7.25V34.75C33.5833 35.3578 33.3638 35.9407 32.9731 36.3705C32.5824 36.8002 32.0525 37.0417 31.5 37.0417H6.5C5.94747 37.0417 5.41756 36.8002 5.02686 36.3705C4.63616 35.9407 4.41667 35.3578 4.41667 34.75V7.25C4.41667 6.64221 4.63616 6.05932 5.02686 5.62955C5.41756 5.19978 5.94747 4.95833 6.5 4.95833V4.95833Z" fill="black"/>
</svg>
