<svg width="31" height="32" viewBox="0 0 31 32" fill="none" xmlns="http://www.w3.org/2000/svg">
<path d="M30.3584 15.746L16.2734 0.839496C16.172 0.731876 16.0516 0.646496 15.919 0.588241C15.7864 0.529986 15.6442 0.5 15.5006 0.5C15.3571 0.5 15.2149 0.529986 15.0823 0.588241C14.9497 0.646496 14.8292 0.731876 14.7278 0.839496L0.642868 15.746C0.232527 16.1806 0 16.7709 0 17.3866C0 18.665 0.981399 19.7044 2.18849 19.7044H3.67255V30.3411C3.67255 30.9821 4.16154 31.5 4.7668 31.5H13.3122V23.3876H17.142V31.5H26.2345C26.8397 31.5 27.3287 30.9821 27.3287 30.3411V19.7044H28.8128C29.3941 19.7044 29.9515 19.4618 30.3618 19.0236C31.2133 18.1182 31.2133 16.6514 30.3584 15.746Z" fill="black"/>
</svg>
