<svg width="31" height="31" viewBox="0 0 31 31" fill="none" xmlns="http://www.w3.org/2000/svg">
<path d="M27.7062 0H3.29375C1.47715 0 0 1.54483 0 3.44444V27.5556C0 29.4552 1.47715 31 3.29375 31H27.7062C29.5228 31 31 29.4552 31 27.5556V3.44444C31 1.54483 29.5228 0 27.7062 0ZM27.7062 27.5556H3.29375C3.2054 27.5556 3.14495 27.528 3.1186 27.528C3.10775 27.528 3.10155 27.5314 3.1 27.5418L3.0814 3.52367C3.09225 3.50644 3.162 3.44444 3.29375 3.44444H27.7062C27.8287 3.44617 27.8953 3.49267 27.9 3.45822L27.9186 27.4763C27.9077 27.4936 27.838 27.5556 27.7062 27.5556Z" fill="#27AE60"/>
<path d="M6.2 6.88889H15.5V17.2222H6.2V6.88889ZM6.2 20.6667V24.1111H24.8V20.6667H6.2ZM18.6 13.7778H24.8V17.2222H18.6V13.7778ZM18.6 6.88889H24.8V10.3333H18.6V6.88889Z" fill="#27AE60"/>
</svg>
