<svg width="31" height="32" viewBox="0 0 31 32" fill="none" xmlns="http://www.w3.org/2000/svg">
<path d="M27.7062 0.5H3.29375C1.47715 0.5 0 2.04483 0 3.94444V28.0556C0 29.9552 1.47715 31.5 3.29375 31.5H27.7062C29.5228 31.5 31 29.9552 31 28.0556V3.94444C31 2.04483 29.5228 0.5 27.7062 0.5ZM27.7062 28.0556H3.29375C3.2054 28.0556 3.14495 28.028 3.1186 28.028C3.10775 28.028 3.10155 28.0314 3.1 28.0418L3.0814 4.02367C3.09225 4.00644 3.162 3.94444 3.29375 3.94444H27.7062C27.8287 3.94617 27.8953 3.99267 27.9 3.95822L27.9186 27.9763C27.9077 27.9936 27.838 28.0556 27.7062 28.0556Z" fill="black"/>
<path d="M6.2 7.38889H15.5V17.7222H6.2V7.38889ZM6.2 21.1667V24.6111H24.8V21.1667H6.2ZM18.6 14.2778H24.8V17.7222H18.6V14.2778ZM18.6 7.38889H24.8V10.8333H18.6V7.38889Z" fill="black"/>
</svg>
