<svg width="31" height="32" viewBox="0 0 31 32" fill="none" xmlns="http://www.w3.org/2000/svg">
<path d="M28.0938 3.08333C28.3507 3.08333 28.5971 3.21942 28.7788 3.46165C28.9604 3.70389 29.0625 4.03243 29.0625 4.375V27.625C29.0625 27.9676 28.9604 28.2961 28.7788 28.5383C28.5971 28.7806 28.3507 28.9167 28.0938 28.9167H2.90625C2.64932 28.9167 2.40292 28.7806 2.22124 28.5383C2.03956 28.2961 1.9375 27.9676 1.9375 27.625V4.375C1.9375 4.03243 2.03956 3.70389 2.22124 3.46165C2.40292 3.21942 2.64932 3.08333 2.90625 3.08333H28.0938ZM2.90625 0.5C2.13546 0.5 1.39625 0.908258 0.851221 1.63496C0.306193 2.36166 0 3.34729 0 4.375V27.625C0 28.6527 0.306193 29.6383 0.851221 30.365C1.39625 31.0917 2.13546 31.5 2.90625 31.5H28.0938C28.8645 31.5 29.6038 31.0917 30.1488 30.365C30.6938 29.6383 31 28.6527 31 27.625V4.375C31 3.34729 30.6938 2.36166 30.1488 1.63496C29.6038 0.908258 28.8645 0.5 28.0938 0.5H2.90625Z" fill="black"/>
<path d="M9.6875 16C9.6875 15.6574 9.78956 15.3289 9.97124 15.0867C10.1529 14.8444 10.3993 14.7083 10.6562 14.7083H24.2188C24.4757 14.7083 24.7221 14.8444 24.9038 15.0867C25.0854 15.3289 25.1875 15.6574 25.1875 16C25.1875 16.3426 25.0854 16.6711 24.9038 16.9133C24.7221 17.1556 24.4757 17.2917 24.2188 17.2917H10.6562C10.3993 17.2917 10.1529 17.1556 9.97124 16.9133C9.78956 16.6711 9.6875 16.3426 9.6875 16ZM9.6875 9.54167C9.6875 9.1991 9.78956 8.87055 9.97124 8.62832C10.1529 8.38609 10.3993 8.25 10.6562 8.25H24.2188C24.4757 8.25 24.7221 8.38609 24.9038 8.62832C25.0854 8.87055 25.1875 9.1991 25.1875 9.54167C25.1875 9.88424 25.0854 10.2128 24.9038 10.455C24.7221 10.6972 24.4757 10.8333 24.2188 10.8333H10.6562C10.3993 10.8333 10.1529 10.6972 9.97124 10.455C9.78956 10.2128 9.6875 9.88424 9.6875 9.54167ZM9.6875 22.4583C9.6875 22.1158 9.78956 21.7872 9.97124 21.545C10.1529 21.3028 10.3993 21.1667 10.6562 21.1667H24.2188C24.4757 21.1667 24.7221 21.3028 24.9038 21.545C25.0854 21.7872 25.1875 22.1158 25.1875 22.4583C25.1875 22.8009 25.0854 23.1294 24.9038 23.3717C24.7221 23.6139 24.4757 23.75 24.2188 23.75H10.6562C10.3993 23.75 10.1529 23.6139 9.97124 23.3717C9.78956 23.1294 9.6875 22.8009 9.6875 22.4583ZM7.75 9.54167C7.75 9.88424 7.64794 10.2128 7.46626 10.455C7.28458 10.6972 7.03818 10.8333 6.78125 10.8333C6.52432 10.8333 6.27792 10.6972 6.09624 10.455C5.91456 10.2128 5.8125 9.88424 5.8125 9.54167C5.8125 9.1991 5.91456 8.87055 6.09624 8.62832C6.27792 8.38609 6.52432 8.25 6.78125 8.25C7.03818 8.25 7.28458 8.38609 7.46626 8.62832C7.64794 8.87055 7.75 9.1991 7.75 9.54167ZM7.75 16C7.75 16.3426 7.64794 16.6711 7.46626 16.9133C7.28458 17.1556 7.03818 17.2917 6.78125 17.2917C6.52432 17.2917 6.27792 17.1556 6.09624 16.9133C5.91456 16.6711 5.8125 16.3426 5.8125 16C5.8125 15.6574 5.91456 15.3289 6.09624 15.0867C6.27792 14.8444 6.52432 14.7083 6.78125 14.7083C7.03818 14.7083 7.28458 14.8444 7.46626 15.0867C7.64794 15.3289 7.75 15.6574 7.75 16ZM7.75 22.4583C7.75 22.8009 7.64794 23.1294 7.46626 23.3717C7.28458 23.6139 7.03818 23.75 6.78125 23.75C6.52432 23.75 6.27792 23.6139 6.09624 23.3717C5.91456 23.1294 5.8125 22.8009 5.8125 22.4583C5.8125 22.1158 5.91456 21.7872 6.09624 21.545C6.27792 21.3028 6.52432 21.1667 6.78125 21.1667C7.03818 21.1667 7.28458 21.3028 7.46626 21.545C7.64794 21.7872 7.75 22.1158 7.75 22.4583Z" fill="black"/>
</svg>
