<svg width="31" height="32" viewBox="0 0 31 32" fill="none" xmlns="http://www.w3.org/2000/svg">
<path d="M21.3125 13.0938C21.3125 12.8368 21.4146 12.5904 21.5962 12.4087C21.7779 12.2271 22.0243 12.125 22.2812 12.125H24.2188C24.4757 12.125 24.7221 12.2271 24.9038 12.4087C25.0854 12.5904 25.1875 12.8368 25.1875 13.0938V15.0312C25.1875 15.2882 25.0854 15.5346 24.9038 15.7163C24.7221 15.8979 24.4757 16 24.2188 16H22.2812C22.0243 16 21.7779 15.8979 21.5962 15.7163C21.4146 15.5346 21.3125 15.2882 21.3125 15.0312V13.0938Z" fill="black"/>
<path d="M6.78125 0.5C7.03818 0.5 7.28458 0.602064 7.46626 0.78374C7.64794 0.965416 7.75 1.21182 7.75 1.46875V2.4375H23.25V1.46875C23.25 1.21182 23.3521 0.965416 23.5337 0.78374C23.7154 0.602064 23.9618 0.5 24.2188 0.5C24.4757 0.5 24.7221 0.602064 24.9038 0.78374C25.0854 0.965416 25.1875 1.21182 25.1875 1.46875V2.4375H27.125C28.1527 2.4375 29.1383 2.84576 29.865 3.57246C30.5917 4.29916 31 5.28479 31 6.3125V27.625C31 28.6527 30.5917 29.6383 29.865 30.365C29.1383 31.0917 28.1527 31.5 27.125 31.5H3.875C2.84729 31.5 1.86166 31.0917 1.13496 30.365C0.408258 29.6383 0 28.6527 0 27.625V6.3125C0 5.28479 0.408258 4.29916 1.13496 3.57246C1.86166 2.84576 2.84729 2.4375 3.875 2.4375H5.8125V1.46875C5.8125 1.21182 5.91456 0.965416 6.09624 0.78374C6.27792 0.602064 6.52432 0.5 6.78125 0.5ZM1.9375 8.25V27.625C1.9375 28.1389 2.14163 28.6317 2.50498 28.995C2.86833 29.3584 3.36114 29.5625 3.875 29.5625H27.125C27.6389 29.5625 28.1317 29.3584 28.495 28.995C28.8584 28.6317 29.0625 28.1389 29.0625 27.625V8.25H1.9375Z" fill="black"/>
</svg>
