<svg width="40" height="40" viewBox="0 0 40 40" fill="none" xmlns="http://www.w3.org/2000/svg">
<path d="M29.8078 19.8666L20.1539 10.2197C20.0844 10.1501 20.0018 10.0948 19.9109 10.0571C19.8201 10.0194 19.7226 10 19.6242 10C19.5258 10 19.4284 10.0194 19.3375 10.0571C19.2466 10.0948 19.164 10.1501 19.0945 10.2197L9.44062 19.8666C9.15937 20.1478 9 20.5299 9 20.9283C9 21.7556 9.67266 22.4283 10.5 22.4283H11.5172V29.3119C11.5172 29.7267 11.8523 30.0619 12.2672 30.0619H18.1242V24.8119H20.7492V30.0619H26.9813C27.3961 30.0619 27.7313 29.7267 27.7313 29.3119V22.4283H28.7484C29.1469 22.4283 29.5289 22.2713 29.8102 21.9877C30.3937 21.4017 30.3937 20.4525 29.8078 19.8666V19.8666Z" fill="black"/>
<path d="M39 20C39 30.4934 30.4934 39 20 39C9.50659 39 1 30.4934 1 20C1 9.50659 9.50659 1 20 1C30.4934 1 39 9.50659 39 20Z" stroke="black" stroke-width="2"/>
</svg>
